HIERARCHY
ROOT Model
{
	OFFSET 0 0 0
	CHANNELS 6 Xposition Yposition Zposition Zrotation Xrotation Yrotation
	JOINT Model1
	{
		OFFSET 0 -2.25479 2.99384
		CHANNELS 3 Zrotation Xrotation Yrotation
		JOINT Model2
		{
			OFFSET 12.111 0 0
			CHANNELS 3 Zrotation Xrotation Yrotation
			JOINT Model3
			{
				OFFSET 11.5502 0 0
				CHANNELS 3 Zrotation Xrotation Yrotation
				JOINT Model4
				{
					OFFSET 11.781 0 0
					CHANNELS 3 Zrotation Xrotation Yrotation
					JOINT Model5
					{
						OFFSET 20.0601 0 0
						CHANNELS 3 Zrotation Xrotation Yrotation
						JOINT Model6
						{
							OFFSET 11.1962 0 0
							CHANNELS 3 Zrotation Xrotation Yrotation
							End Site
							{
								OFFSET 0 0 0
							}
						}
					}
					JOINT Model7
					{
						OFFSET 10.8223 0.417534 3.51114
						CHANNELS 3 Zrotation Xrotation Yrotation
						JOINT Model8
						{
							OFFSET -6.07944 0 0
							CHANNELS 3 Zrotation Xrotation Yrotation
							JOINT Model9
							{
								OFFSET -0.277405 10.39 -0.051239
								CHANNELS 3 Zrotation Xrotation Yrotation
								JOINT Model10
								{
									OFFSET -3.43909 -0.282043 1.86679
									CHANNELS 3 Zrotation Xrotation Yrotation
									JOINT Model11
									{
										OFFSET 13.0269 0 0
										CHANNELS 3 Zrotation Xrotation Yrotation
										JOINT Model12
										{
											OFFSET 10.8866 0 0
											CHANNELS 3 Zrotation Xrotation Yrotation
											JOINT Model13
											{
												OFFSET 16.7317 0 0
												CHANNELS 3 Zrotation Xrotation Yrotation
												JOINT Model14
												{
													OFFSET 11.8292 0 0
													CHANNELS 3 Zrotation Xrotation Yrotation
													JOINT Model15
													{
														OFFSET 4.82751 -3.73566 -0.836517
														CHANNELS 3 Zrotation Xrotation Yrotation
														JOINT Model16
														{
															OFFSET 3.75311 -0.0582886 -0.0186462
															CHANNELS 3 Zrotation Xrotation Yrotation
															JOINT Model17
															{
																OFFSET 2.88689 0.0192337 0.014801
																CHANNELS 3 Zrotation Xrotation Yrotation
																End Site
																{
																	OFFSET 0 0 0
																}
															}
														}
													}
													JOINT Model18
													{
														OFFSET 9.72197 -3.06458 0.23877
														CHANNELS 3 Zrotation Xrotation Yrotation
														JOINT Model19
														{
															OFFSET 4.61131 0 0
															CHANNELS 3 Zrotation Xrotation Yrotation
															JOINT Model20
															{
																OFFSET 2.8969 -7.62939e-006 0
																CHANNELS 3 Zrotation Xrotation Yrotation
																End Site
																{
																	OFFSET 0 0 0
																}
															}
														}
													}
													JOINT Model21
													{
														OFFSET 9.54431 -0.745064 0.588928
														CHANNELS 3 Zrotation Xrotation Yrotation
														JOINT Model22
														{
															OFFSET 5.33978 0 0
															CHANNELS 3 Zrotation Xrotation Yrotation
															JOINT Model23
															{
																OFFSET 3.03619 7.62939e-006 0
																CHANNELS 3 Zrotation Xrotation Yrotation
																End Site
																{
																	OFFSET 0 0 0
																}
															}
														}
													}
													JOINT Model24
													{
														OFFSET 9.47758 1.51286 0.485107
														CHANNELS 3 Zrotation Xrotation Yrotation
														JOINT Model25
														{
															OFFSET 4.96136 7.62939e-006 0
															CHANNELS 3 Zrotation Xrotation Yrotation
															JOINT Model26
															{
																OFFSET 2.51965 0 0
																CHANNELS 3 Zrotation Xrotation Yrotation
																End Site
																{
																	OFFSET 0 0 0
																}
															}
														}
													}
													JOINT Model27
													{
														OFFSET 9.34247 3.34117 -0.239288
														CHANNELS 3 Zrotation Xrotation Yrotation
														JOINT Model28
														{
															OFFSET 3.28259 2.28882e-005 0
															CHANNELS 3 Zrotation Xrotation Yrotation
															JOINT Model29
															{
																OFFSET 2.1292 0 0
																CHANNELS 3 Zrotation Xrotation Yrotation
																End Site
																{
																	OFFSET 0 0 0
																}
															}
														}
													}
												}
											}
										}
									}
								}
							}
						}
					}
					JOINT Model30
					{
						OFFSET 10.8223 0.4179 -3.51108
						CHANNELS 3 Zrotation Xrotation Yrotation
						JOINT Model31
						{
							OFFSET 6.07944 0 0
							CHANNELS 3 Zrotation Xrotation Yrotation
							JOINT Model32
							{
								OFFSET 0.277405 -10.39 0.051239
								CHANNELS 3 Zrotation Xrotation Yrotation
								JOINT Model33
								{
									OFFSET 3.43909 0.282043 -1.86679
									CHANNELS 3 Zrotation Xrotation Yrotation
									JOINT Model34
									{
										OFFSET -13.0269 0 0
										CHANNELS 3 Zrotation Xrotation Yrotation
										JOINT Model35
										{
											OFFSET -10.8866 0 0
											CHANNELS 3 Zrotation Xrotation Yrotation
											JOINT Model36
											{
												OFFSET -16.7317 0 0
												CHANNELS 3 Zrotation Xrotation Yrotation
												JOINT Model37
												{
													OFFSET -11.8292 0 0
													CHANNELS 3 Zrotation Xrotation Yrotation
													JOINT Model38
													{
														OFFSET -4.82751 3.73566 0.836517
														CHANNELS 3 Zrotation Xrotation Yrotation
														JOINT Model39
														{
															OFFSET -3.75311 0.0582886 0.0186462
															CHANNELS 3 Zrotation Xrotation Yrotation
															JOINT Model40
															{
																OFFSET -2.88687 -0.0192337 -0.014801
																CHANNELS 3 Zrotation Xrotation Yrotation
																End Site
																{
																	OFFSET 0 0 0
																}
															}
														}
													}
													JOINT Model41
													{
														OFFSET -9.72198 3.06459 -0.23877
														CHANNELS 3 Zrotation Xrotation Yrotation
														JOINT Model42
														{
															OFFSET -4.6113 0 0
															CHANNELS 3 Zrotation Xrotation Yrotation
															JOINT Model43
															{
																OFFSET -2.89691 0 0
																CHANNELS 3 Zrotation Xrotation Yrotation
																End Site
																{
																	OFFSET 0 0 0
																}
															}
														}
													}
													JOINT Model44
													{
														OFFSET -9.54431 0.745064 -0.588928
														CHANNELS 3 Zrotation Xrotation Yrotation
														JOINT Model45
														{
															OFFSET -5.33978 0 0
															CHANNELS 3 Zrotation Xrotation Yrotation
															JOINT Model46
															{
																OFFSET -3.03619 -1.52588e-005 0
																CHANNELS 3 Zrotation Xrotation Yrotation
																End Site
																{
																	OFFSET 0 0 0
																}
															}
														}
													}
													JOINT Model47
													{
														OFFSET -9.4776 -1.51286 -0.485107
														CHANNELS 3 Zrotation Xrotation Yrotation
														JOINT Model48
														{
															OFFSET -4.96136 -1.52588e-005 0
															CHANNELS 3 Zrotation Xrotation Yrotation
															JOINT Model49
															{
																OFFSET -2.51965 0 0
																CHANNELS 3 Zrotation Xrotation Yrotation
																End Site
																{
																	OFFSET 0 0 0
																}
															}
														}
													}
													JOINT Model50
													{
														OFFSET -9.34247 -3.34118 0.239288
														CHANNELS 3 Zrotation Xrotation Yrotation
														JOINT Model51
														{
															OFFSET -3.28259 -2.28882e-005 0
															CHANNELS 3 Zrotation Xrotation Yrotation
															JOINT Model52
															{
																OFFSET -2.12921 0 0
																CHANNELS 3 Zrotation Xrotation Yrotation
																End Site
																{
																	OFFSET 0 0 0
																}
															}
														}
													}
												}
											}
										}
									}
								}
							}
						}
					}
				}
			}
		}
	}
	JOINT Model53
	{
		OFFSET 4.38025 -2.14632 -1.11517
		CHANNELS 3 Zrotation Xrotation Yrotation
		JOINT Model54
		{
			OFFSET 0 0 4.94998
			CHANNELS 3 Zrotation Xrotation Yrotation
			JOINT Model55
			{
				OFFSET 18.5642 0 0
				CHANNELS 3 Zrotation Xrotation Yrotation
				JOINT Model56
				{
					OFFSET 21.2884 0 0
					CHANNELS 3 Zrotation Xrotation Yrotation
					JOINT Model57
					{
						OFFSET 30.261 0 0
						CHANNELS 3 Zrotation Xrotation Yrotation
						JOINT Model58
						{
							OFFSET 11.7259 0 0
							CHANNELS 3 Zrotation Xrotation Yrotation
							JOINT Model59
							{
								OFFSET 10.682 0 0
								CHANNELS 3 Zrotation Xrotation Yrotation
								End Site
								{
									OFFSET 0 0 0
								}
							}
						}
					}
				}
			}
		}
	}
	JOINT Model60
	{
		OFFSET -4.38025 -2.14632 -1.11517
		CHANNELS 3 Zrotation Xrotation Yrotation
		JOINT Model61
		{
			OFFSET 0 0 -4.94998
			CHANNELS 3 Zrotation Xrotation Yrotation
			JOINT Model62
			{
				OFFSET -18.5642 0 0
				CHANNELS 3 Zrotation Xrotation Yrotation
				JOINT Model63
				{
					OFFSET -21.2884 0 0
					CHANNELS 3 Zrotation Xrotation Yrotation
					JOINT Model64
					{
						OFFSET -30.261 0 0
						CHANNELS 3 Zrotation Xrotation Yrotation
						JOINT Model65
						{
							OFFSET -11.7259 0 0
							CHANNELS 3 Zrotation Xrotation Yrotation
							JOINT Model66
							{
								OFFSET -10.682 0 0
								CHANNELS 3 Zrotation Xrotation Yrotation
								End Site
								{
									OFFSET 0 0 0
								}
							}
						}
					}
				}
			}
		}
	}
}
MOTION
Frames: 4
Frame Time: 0.033333
-659.106 173.794 -737.323 94.861 -47.7331 95.5266 -180 4.29621e-031 -90 0.552938 0.10244 -0.102145 1.10606 0.203452 -0.205275 1.10606 0.20389 -0.205283 0.114872 1.13689 1.31687 14.2159 1.43723 0.807522 120.092 75.5343 58.4939 12.8764 2.63046 -1.32415 -167.277 84.4999 48.8109 168.757 -12.0041 -31.5029 3.53244e-006 13.9485 3.07537e-005 0.00108825 0.568345 1.5231 2.21559e-007 0.916685 9.25298e-008 -3.75761 -0.0418018 1.27428 -72.0648 39.0385 39.3397 33.3638 2.10362 14.835 0.588947 0.308273 6.35287 -99.6409 81.413 100.35 -0.0181409 2.77812e-005 -0.117315 -0.124139 0.00241112 -0.799296 -79.8382 79.5773 80.5374 -0.00022578 -0.00022092 2.21532e-005 -0.000956231 0.000122898 -2.73766e-005 -66.7416 80.4058 67.2171 -0.000437137 1.5948e-005 -2.73616e-005 -0.00013661 -0.000109288 -5.46969e-005 -6.42159 81.2158 8.01779 -0.000218575 1.69041e-005 0.000212098 0.000901572 -0.000184807 -0.000218623 -59.9282 75.5373 58.5147 13.3973 4.41618 -1.08416 -167.277 84.4999 48.8109 166.237 -18.6533 -20.2644 7.11108e-006 -0.301125 2.91029e-005 -1.62421 7.8772 -0.0850437 -4.64505e-006 11.8421 1.91895e-006 -0.710631 0.0292419 -4.71257 -72.0648 39.0385 39.3397 33.3638 2.10361 14.835 0.588946 0.308273 6.35287 -99.6409 81.413 100.35 -0.0181409 3.01084e-005 -0.117315 -0.124139 0.00241117 -0.799296 -79.8382 79.5773 80.5374 -0.000260636 -0.000218534 2.36104e-005 -0.000956212 0.00012304 -2.72666e-005 -66.7416 80.4058 67.2171 -0.00043712 1.49122e-005 -2.72809e-005 -0.000136588 -0.000109241 -5.45875e-005 -6.42159 81.2158 8.01779 -0.00021855 1.9599e-005 0.00021233 0.000901605 -0.000191218 -0.000218521 0.000811311 0.56661 89.91 -15.8251 -2.88002 -10.4353 8.29649e-007 2.23009 -1.16191e-008 37.8996 -2.88871 -1.77156 -1.25823e-007 -4.40677 -1.29696e-007 -67.9168 -7.58131 3.17448 -35.4947 7.07909e-007 -1.81803e-007 -180 -0.566579 -90.09 -13.754 -6.79971 -10.0682 -1.27954e-006 -3.57694 -5.7312e-008 33.7337 -1.71359 -2.67178 3.29021e-007 -2.63703 -1.59402e-007 -65.0795 -7.84477 3.66938 -35.4947 2.91092e-007 4.04065e-007 
-659.117 173.766 -737.308 94.9556 -47.7223 95.5571 -180 4.29621e-031 -90 0.549144 0.0905766 -0.109221 1.09846 0.179665 -0.219306 1.09846 0.180102 -0.219314 -0.256873 1.19635 1.28582 14.4882 1.49872 0.893918 120.092 75.5343 58.4939 12.5925 1.98759 -1.39707 -167.277 84.4999 48.8109 168.004 -11.6632 -31.6411 3.45974e-006 14.0799 3.07713e-005 -0.0042197 0.765775 1.5707 2.2108e-007 1.21294 9.25387e-008 -4.42452 -0.0616079 1.59471 -72.0648 39.0385 39.3397 33.3638 2.10362 14.835 0.588947 0.308273 6.35287 -99.6409 81.413 100.35 -0.0181409 2.77812e-005 -0.117315 -0.124139 0.00241112 -0.799296 -79.8382 79.5773 80.5374 -0.00022578 -0.00022092 2.21532e-005 -0.000956231 0.000122898 -2.73766e-005 -66.7416 80.4058 67.2171 -0.000437137 1.5948e-005 -2.73616e-005 -0.00013661 -0.000109288 -5.46969e-005 -6.42159 81.2158 8.01779 -0.000218575 1.69041e-005 0.000212098 0.000901572 -0.000184807 -0.000218623 -59.9282 75.5373 58.5147 13.5311 5.6398 -0.883441 -167.277 84.4999 48.8109 167.535 -18.9842 -20.2356 7.11642e-006 -0.311625 2.9103e-005 -1.63333 7.63963 -0.081247 -4.63287e-006 11.4855 1.91649e-006 -1.00224 0.0402271 -4.59677 -72.0648 39.0385 39.3397 33.3638 2.10361 14.835 0.588946 0.308273 6.35287 -99.6409 81.413 100.35 -0.0181409 3.01084e-005 -0.117315 -0.124139 0.00241117 -0.799296 -79.8382 79.5773 80.5374 -0.000260636 -0.000218534 2.36104e-005 -0.000956212 0.00012304 -2.72666e-005 -66.7416 80.4058 67.2171 -0.00043712 1.49122e-005 -2.72809e-005 -0.000136588 -0.000109241 -5.45875e-005 -6.42159 81.2158 8.01779 -0.00021855 1.9599e-005 0.00021233 0.000901605 -0.000191218 -0.000218521 0.000811311 0.56661 89.91 -15.7271 -2.65613 -10.1913 8.2969e-007 2.42946 -1.16207e-008 37.9601 -3.059 -1.87396 -1.26404e-007 -4.66271 -1.29742e-007 -67.9286 -7.75173 3.26504 -35.4947 7.08517e-007 -1.46211e-006 -180 -0.566579 -90.09 -13.8444 -6.97425 -10.1036 -1.2798e-006 -3.83141 -5.73284e-008 33.9052 -1.56091 -2.92609 3.29657e-007 -2.40861 -1.59374e-007 -65.1615 -7.82869 3.64986 -35.4947 2.85843e-007 1.61772e-005 
-659.123 173.766 -737.297 95.006 -47.6932 95.5931 -180 4.29621e-031 -90 0.549263 0.13376 -0.116404 1.0988 0.26596 -0.234086 1.0988 0.266397 -0.234094 -0.433076 0.976113 1.67794 14.5029 1.35654 0.609912 120.092 75.5343 58.4939 12.7876 2.5669 -1.31999 -167.277 84.4999 48.8109 168.397 -12.0069 -31.516 3.64016e-006 13.7536 3.07279e-005 -0.00901889 0.92616 1.63008 2.20691e-007 1.45363 9.25478e-008 -4.43447 -0.0816306 2.10814 -72.0648 39.0385 39.3397 33.3638 2.10362 14.835 0.588947 0.308273 6.35287 -99.6409 81.413 100.35 -0.0181409 2.77812e-005 -0.117315 -0.124139 0.00241112 -0.799296 -79.8382 79.5773 80.5374 -0.00022578 -0.00022092 2.21532e-005 -0.000956231 0.000122898 -2.73766e-005 -66.7416 80.4058 67.2171 -0.000437137 1.5948e-005 -2.73616e-005 -0.00013661 -0.000109288 -5.46969e-005 -6.42159 81.2158 8.01779 -0.000218575 1.69041e-005 0.000212098 0.000901572 -0.000184807 -0.000218623 -59.9282 75.5373 58.5147 13.1167 5.8808 -0.750239 -167.277 84.4999 48.8109 167.918 -19.1801 -20.7117 7.12085e-006 -0.320352 2.9103e-005 -1.63237 7.66534 -0.0816427 -4.63419e-006 11.5241 1.91675e-006 -1.0846 0.0437424 -4.61889 -72.0648 39.0385 39.3397 33.3638 2.10361 14.835 0.588946 0.308273 6.35287 -99.6409 81.413 100.35 -0.0181409 3.01084e-005 -0.117315 -0.124139 0.00241117 -0.799296 -79.8382 79.5773 80.5374 -0.000260636 -0.000218534 2.36104e-005 -0.000956212 0.00012304 -2.72666e-005 -66.7416 80.4058 67.2171 -0.00043712 1.49122e-005 -2.72809e-005 -0.000136588 -0.000109241 -5.45875e-005 -6.42159 81.2158 8.01779 -0.00021855 1.9599e-005 0.00021233 0.000901605 -0.000191218 -0.000218521 0.000811311 0.56661 89.91 -15.6748 -2.60173 -10.1519 8.29703e-007 2.49468 -1.16213e-008 37.9296 -3.10828 -1.91005 -1.26572e-007 -4.73673 -1.29756e-007 -67.8885 -7.81515 3.30416 -35.4947 7.12449e-007 -5.20504e-006 -180 -0.566579 -90.09 -13.7876 -6.89127 -9.97479 -1.27975e-006 -3.78146 -5.73251e-008 33.9005 -1.66505 -3.04184 3.2922e-007 -2.56531 -1.59393e-007 -65.1413 -7.92093 3.7051 -35.4947 2.93468e-007 3.26818e-005 
-659.125 173.767 -737.306 95.027 -47.6663 95.6049 -180 4.29621e-031 -90 0.556018 0.175851 -0.118223 1.1124 0.35011 -0.238149 1.1124 0.350547 -0.238158 -0.539137 0.772092 1.92217 14.4766 1.20117 0.395809 120.092 75.5343 58.4939 12.9261 3.29395 -1.2059 -167.277 84.4999 48.8109 168.964 -12.4169 -31.4873 3.80586e-006 13.4531 3.0689e-005 -0.0111624 0.990631 1.6764 2.20535e-007 1.55039 9.25519e-008 -3.99395 -0.0880355 2.52442 -72.0648 39.0385 39.3397 33.3638 2.10362 14.835 0.588947 0.308273 6.35287 -99.6409 81.413 100.35 -0.0181409 2.77812e-005 -0.117315 -0.124139 0.00241112 -0.799296 -79.8382 79.5773 80.5374 -0.00022578 -0.00022092 2.21532e-005 -0.000956231 0.000122898 -2.73766e-005 -66.7416 80.4058 67.2171 -0.000437137 1.5948e-005 -2.73616e-005 -0.00013661 -0.000109288 -5.46969e-005 -6.42159 81.2158 8.01779 -0.000218575 1.69041e-005 0.000212098 0.000901572 -0.000184807 -0.000218623 -59.9282 75.5373 58.5147 12.8262 5.69744 -0.723356 -167.277 84.4999 48.8109 167.894 -19.2454 -21.0651 7.12282e-006 -0.32424 2.9103e-005 -1.62699 7.80591 -0.0838754 -4.64139e-006 11.7351 1.91821e-006 -1.00715 0.0419256 -4.76732 -72.0648 39.0385 39.3397 33.3638 2.10361 14.835 0.588946 0.308273 6.35287 -99.6409 81.413 100.35 -0.0181409 3.01084e-005 -0.117315 -0.124139 0.00241117 -0.799296 -79.8382 79.5773 80.5374 -0.000260636 -0.000218534 2.36104e-005 -0.000956212 0.00012304 -2.72666e-005 -66.7416 80.4058 67.2171 -0.00043712 1.49122e-005 -2.72809e-005 -0.000136588 -0.000109241 -5.45875e-005 -6.42159 81.2158 8.01779 -0.00021855 1.9599e-005 0.00021233 0.000901605 -0.000191218 -0.000218521 0.000811311 0.56661 89.91 -15.7007 -2.68705 -10.2344 8.29687e-007 2.41409 -1.16206e-008 37.9333 -3.01212 -1.86294 -1.26244e-007 -4.59228 -1.29729e-007 -67.8982 -7.72492 3.25426 -35.4947 7.1946e-007 -1.12347e-005 -180 -0.566579 -90.09 -13.7257 -6.72226 -9.87924 -1.27955e-006 -3.57938 -5.73121e-008 33.885 -1.82541 -2.99995 3.2855e-007 -2.80606 -1.59424e-007 -65.1153 -8.00676 3.75746 -35.4947 3.1295e-007 4.98701e-005 
